<svg version="1.0" preserveAspectRatio="xMidYMid meet" viewBox="96.08540925266904 328.319995896 347.82918149466195 299.519996256" zoomAndPan="magnify" xmlns:xlink="http://www.w3.org/1999/xlink" xmlns="http://www.w3.org/2000/svg" style="max-height: 500px" width="347.82918149466195" height="299.519996256"><defs><clipPath id="454d566c85"><path clip-rule="nonzero" d="M 117.160156 456 L 156 456 L 156 533 L 117.160156 533 Z M 117.160156 456"/></clipPath><clipPath id="32826b8045"><path clip-rule="nonzero" d="M 255 355.816406 L 285 355.816406 L 285 385 L 255 385 Z M 255 355.816406"/></clipPath><clipPath id="2df0b3cc75"><path clip-rule="nonzero" d="M 250 565 L 299 565 L 299 604.066406 L 250 604.066406 Z M 250 565"/></clipPath></defs><path fill-rule="nonzero" fill-opacity="1" d="M 312.980469 494.324219 C 307.707031 494.324219 303.425781 490.046875 303.425781 484.769531 C 303.425781 479.496094 307.707031 475.21875 312.980469 475.21875 C 318.253906 475.21875 322.53125 479.496094 322.53125 484.769531 C 322.53125 490.046875 318.253906 494.324219 312.980469 494.324219 Z M 269.996094 525.316406 C 256.804688 525.316406 246.113281 516.761719 246.113281 506.210938 L 293.875 506.210938 C 293.875 516.761719 283.183594 525.316406 269.996094 525.316406 Z M 227.011719 494.324219 C 221.734375 494.324219 217.457031 490.046875 217.457031 484.769531 C 217.457031 479.496094 221.734375 475.21875 227.011719 475.21875 C 232.285156 475.21875 236.5625 479.496094 236.5625 484.769531 C 236.5625 490.046875 232.285156 494.324219 227.011719 494.324219 Z M 308.203125 437.011719 L 231.785156 437.011719 C 215.960938 437.011719 201.632812 443.425781 191.261719 453.796875 C 180.886719 464.167969 174.472656 478.496094 174.472656 494.324219 C 174.472656 525.976562 200.132812 551.636719 231.785156 551.636719 L 308.203125 551.636719 C 324.03125 551.636719 338.359375 545.222656 348.730469 534.847656 C 359.101562 524.476562 365.515625 510.148438 365.515625 494.324219 C 365.515625 462.667969 339.859375 437.011719 308.203125 437.011719" fill="#004aad"/><path fill-rule="nonzero" fill-opacity="1" d="M 269.996094 589.84375 L 241.339844 589.84375 C 228.445312 589.84375 215.933594 587.320312 204.15625 582.335938 C 192.78125 577.523438 182.566406 570.636719 173.792969 561.867188 C 165.023438 553.09375 158.136719 542.878906 153.328125 531.507812 C 148.34375 519.726562 145.816406 507.214844 145.816406 494.324219 C 145.816406 481.429688 148.34375 468.917969 153.328125 457.140625 C 158.136719 445.765625 165.023438 435.550781 173.792969 426.777344 C 182.566406 418.007812 192.78125 411.121094 204.15625 406.308594 C 215.933594 401.328125 228.445312 398.800781 241.339844 398.800781 L 298.652344 398.800781 C 311.542969 398.800781 324.054688 401.328125 335.832031 406.308594 C 347.210938 411.121094 357.425781 418.007812 366.195312 426.777344 C 374.964844 435.550781 381.851562 445.765625 386.664062 457.140625 C 391.648438 468.917969 394.171875 481.429688 394.171875 494.324219 L 384.621094 494.324219 C 384.621094 446.917969 346.054688 408.355469 298.652344 408.355469 L 241.339844 408.355469 C 193.933594 408.355469 155.371094 446.917969 155.371094 494.324219 C 155.371094 541.726562 193.933594 580.292969 241.339844 580.292969 L 269.996094 580.292969 L 269.996094 589.84375" fill="#004aad"/><g clip-path="url(#454d566c85)"><path fill-rule="nonzero" fill-opacity="1" d="M 155.371094 532.53125 C 134.265625 532.53125 117.160156 515.425781 117.160156 494.324219 C 117.160156 473.222656 134.265625 456.113281 155.371094 456.113281 L 155.371094 532.53125" fill="#004aad"/></g><path fill-rule="nonzero" fill-opacity="1" d="M 384.621094 532.53125 C 405.722656 532.53125 422.828125 515.425781 422.828125 494.324219 C 422.828125 473.222656 405.722656 456.113281 384.621094 456.113281 L 384.621094 532.53125" fill="#004aad"/><path fill-rule="nonzero" fill-opacity="1" d="M 293.875 441.785156 C 293.875 452.335938 283.183594 460.890625 269.996094 460.890625 C 256.804688 460.890625 246.113281 452.335938 246.113281 441.785156 C 246.113281 431.234375 256.804688 422.683594 269.996094 422.683594 C 283.183594 422.683594 293.875 431.234375 293.875 441.785156" fill="#004aad"/><g clip-path="url(#32826b8045)"><path fill-rule="nonzero" fill-opacity="1" d="M 284.324219 370.144531 C 284.324219 378.058594 277.910156 384.472656 269.996094 384.472656 C 262.082031 384.472656 255.667969 378.058594 255.667969 370.144531 C 255.667969 362.230469 262.082031 355.816406 269.996094 355.816406 C 277.910156 355.816406 284.324219 362.230469 284.324219 370.144531" fill="#004aad"/></g><g clip-path="url(#2df0b3cc75)"><path fill-rule="nonzero" fill-opacity="1" d="M 298.652344 585.066406 C 298.652344 595.621094 287.960938 604.171875 274.769531 604.171875 C 261.582031 604.171875 250.890625 595.621094 250.890625 585.066406 C 250.890625 574.515625 261.582031 565.964844 274.769531 565.964844 C 287.960938 565.964844 298.652344 574.515625 298.652344 585.066406" fill="#004aad"/></g><path fill-rule="nonzero" fill-opacity="1" d="M 274.769531 456.316406 L 265.21875 456.316406 L 265.21875 370.144531 L 274.769531 370.144531 L 274.769531 456.316406" fill="#004aad"/></svg>